PathFileType	4	(X/Y/Z)	C:\Users\WrightLab\Desktop\Jo\P2_Trial14.trc
DataRate	CameraRate	NumFrames	NumMarkers	Units	OrigDataRate	OrigDataStartFrame	OrigNumFrames
100.00	100.00	       20	19	mm	100.00	293	       781
Frame#	Time	Headset_Front			Headset_Back			Headset_Left			Headset_Right			Left_Shoulder			Right_Shoulder			Sternum			C7			Left Elbow			Right Elbow			Left Wrist			Right Wrist			Left ASIS			Right ASIS			S2			Left Knee			Right Knee			Left Ankle			Right Ankle			
		X1	Y1	Z1	X2	Y2	Z2	X3	Y3	Z3	X4	Y4	Z4	X5	Y5	Z5	X6	Y6	Z6	X7	Y7	Z7	X8	Y8	Z8	X9	Y9	Z9	X10	Y10	Z10	X11	Y11	Z11	X12	Y12	Z12	X13	Y13	Z13	X14	Y14	Z14	X15	Y15	Z15	X16	Y16	Z16	X17	Y17	Z17	X18	Y18	Z18	X19	Y19	Z19	

293	2.920	86.81613	1397.26758	1420.83252				-47.92513	1627.05750	1503.56128				-54.10615	1492.88147	1629.78174	264.74020	1503.44373	1550.87915										413.40811	1203.19214	1606.82056	-266.04309	1300.36597	1576.29272	410.87772	1216.02502	1384.27612	66.49851	1088.05457	1517.56665	197.02774	1087.31738	1500.58276	163.60155	1013.34064	1766.24182	-15.60931	485.05112	1696.56079	314.08270	611.70215	1583.46484	15.12590	130.99663	1745.09436	353.28326	187.66347	1649.32739	
294	2.930	87.68583	1397.09717	1421.41174				-46.15726	1625.35999	1500.22571				-53.44505	1493.86829	1628.35400	265.39804	1502.65686	1550.17847										411.92798	1201.80127	1606.36133	-264.45221	1299.00964	1575.63452	413.42484	1216.92712	1384.08789	66.14427	1087.51636	1515.37622	196.51465	1088.14612	1498.08496	163.87083	1013.29407	1763.45068	-15.18305	484.91550	1694.12744	313.77826	611.32867	1577.31567	14.26489	130.22467	1744.21545	354.80936	187.61929	1642.44885	
295	2.940	88.45895	1397.15259	1420.50720				-45.35083	1624.07959	1498.53455				-52.95810	1494.26013	1626.55676	266.80408	1502.11926	1548.79236										411.57034	1200.02649	1605.93994	-263.41452	1298.35645	1576.58032	414.33704	1217.51746	1384.03894	66.29230	1087.60938	1511.17249	196.66733	1087.68860	1494.40784	163.18816	1012.88983	1761.15173	-15.00912	484.87811	1689.61841	314.28491	611.73853	1570.98706	14.02183	129.46028	1741.59314	356.57825	187.98814	1634.49353	
296	2.950	89.40894	1396.81787	1419.88794				-44.45194	1622.33533	1496.95142				-51.59758	1494.02429	1623.22766	268.50244	1501.60254	1548.34070										410.71179	1199.06580	1605.69312	-261.59439	1297.33008	1575.70483	417.00253	1217.86292	1384.45850	64.99126	1087.67957	1508.01416	195.95689	1088.21155	1491.57629	163.12889	1011.36871	1756.58350	-13.60115	482.55679	1684.94189	315.16241	611.65479	1565.40369	13.64015	129.61057	1741.05029	358.70209	188.45241	1626.04553	
297	2.960	89.95789	1396.64417	1417.83777				-42.95502	1620.90869	1494.33777				-50.90871	1495.24365	1621.13757	269.64740	1500.73035	1546.47815										410.60907	1198.03284	1605.70605	-260.06256	1296.57166	1575.88745	418.21286	1217.83557	1384.77429	66.35448	1088.14331	1504.52661	196.20500	1088.48096	1489.66711	162.84689	1011.35553	1754.74304	-12.74158	484.37683	1683.34106	316.04749	611.91614	1559.92126	12.92322	129.59032	1739.32776	360.82361	188.03604	1618.26501	
298	2.970	90.97121	1396.34766	1416.32410				-41.90949	1620.21484	1492.29175				-50.01926	1495.57947	1618.56396	271.33334	1499.89478	1545.90710										410.45908	1196.15308	1605.04224	-257.79330	1294.29285	1574.65100	420.90945	1217.00671	1384.21008	66.62788	1087.94275	1500.03357	196.46588	1088.38306	1487.11768	162.39098	1010.60541	1750.11267	-12.46311	483.01709	1678.70813	317.82535	611.96051	1555.80566	12.53260	129.82175	1737.22290	363.71652	187.90392	1610.21838	
299	2.980	92.28642	1395.71362	1414.13928				-40.79652	1618.89966	1490.32031				-48.89053	1495.78613	1615.12146	272.70642	1498.94995	1543.43616							-151.34413	1216.23511	1672.94604	410.53604	1194.99084	1604.86060	-256.71695	1293.36633	1575.72595	423.39453	1215.78760	1384.00330	66.56275	1087.23279	1497.79492	197.35475	1089.26221	1483.24084	161.71658	1010.16681	1747.55713	-13.36534	483.42685	1674.85632	319.67368	611.96002	1550.42920	11.50904	130.42892	1736.25964	366.11649	187.22208	1600.02747	
300	2.990	93.04889	1395.27808	1411.23401				-40.16000	1618.18970	1488.89258				-48.26178	1495.88086	1612.75281	274.12976	1498.20923	1541.66418							-148.35800	1215.62305	1671.42493	411.29712	1193.81470	1604.55908	-254.06633	1290.88599	1573.53015	425.39966	1214.44385	1383.92688	67.41885	1087.03516	1494.48706	197.20955	1089.45898	1478.95972	161.28032	1009.01849	1744.12927	-12.56308	482.98636	1672.40906	322.05038	612.11847	1545.74463	10.81310	130.07718	1734.81067	369.57199	186.40160	1590.33362	
301	3.000	94.30096	1394.75403	1408.52563				-39.12278	1617.03394	1486.65100				-46.79005	1495.54956	1608.65637	275.57971	1496.51636	1538.17944							-145.95750	1215.89111	1672.59692	412.31400	1192.43494	1603.89673	-252.00766	1288.25220	1572.36865	427.47302	1212.96106	1383.65564	67.46462	1087.17163	1491.08789	198.04799	1089.40137	1476.60852	160.48004	1008.25116	1740.04883	-11.69773	482.15289	1667.53296	324.77963	611.23651	1541.93909	9.82961	130.88382	1733.65515	372.46951	185.35747	1581.54309	
302	3.010	95.32411	1394.38391	1405.92798				-38.26663	1616.49927	1484.52393				-45.73944	1496.32312	1605.68005	276.90289	1495.51318	1535.32312							-143.54143	1215.10876	1670.93030	413.11261	1191.19788	1603.13245	-251.25960	1286.86670	1572.50623	429.95712	1210.73743	1383.85278	67.78263	1086.78589	1486.26538	199.13510	1089.43518	1474.08069	160.38562	1007.65594	1736.93115	-11.17554	482.06796	1664.43628	327.71863	611.09113	1538.97986	9.33003	127.63802	1726.83008	376.50818	184.25061	1570.52832	
303	3.020	96.74492	1393.93616	1402.07678				-37.39301	1616.02441	1482.57227				-44.16772	1496.11157	1602.18958	278.45996	1493.92041	1532.39453							-140.84676	1215.30505	1671.28784	414.31100	1190.26782	1603.37476	-249.06781	1283.15491	1570.33899	433.15509	1208.67908	1383.62805	69.36056	1086.89441	1483.16040	200.33247	1088.93213	1471.30701	158.88139	1006.72089	1733.17957	-10.58824	481.84778	1660.72693	330.45297	609.91528	1535.01282	8.35765	126.93867	1724.41418	380.12308	182.58736	1560.02026	
304	3.030	97.30099	1393.47449	1397.06799				-36.97873	1616.07190	1481.35583				-43.11074	1495.82178	1599.57971	279.81189	1492.97559	1529.21509										415.99005	1189.60327	1602.51563	-246.75488	1279.74988	1566.51233	434.83801	1205.35486	1383.29260	70.12917	1086.83813	1479.68567	201.25717	1089.73230	1467.98254	158.51361	1005.99445	1731.26184	-9.47313	481.70230	1656.12891	333.68365	608.94489	1532.17529	8.60486	126.68366	1721.18286	383.62756	180.92114	1549.40881	
305	3.040	98.58277	1392.93054	1393.24097				-35.63755	1615.89014	1478.62354				-41.71524	1495.61511	1595.68054	281.01511	1491.70386	1525.41589							-136.88268	1214.31055	1669.43469	416.70013	1188.75220	1602.17200	-245.79626	1276.91931	1565.18481	437.25555	1202.45886	1381.84326	70.91636	1086.93396	1476.51794	201.90576	1088.32703	1464.19922	158.32381	1005.05231	1726.05835	-8.21259	479.78250	1650.70923	337.34872	607.65692	1529.46411	8.30867	127.04379	1718.99292	386.77512	179.47318	1538.13086	
306	3.050	99.79308	1392.48291	1389.53064				-34.50107	1615.52222	1476.40344				-40.64413	1495.20532	1591.66943	282.17343	1490.63745	1521.36511							-134.44518	1213.46021	1668.71606	418.26138	1188.07800	1601.63599	-244.42474	1273.99634	1563.09192	439.96948	1198.56372	1381.53870	72.68915	1085.71606	1472.94727	203.44887	1087.65698	1460.90088	158.17961	1004.50024	1722.61877	-8.12943	481.22879	1650.02551	341.24136	606.68481	1527.07129	7.64153	126.75925	1716.80408	390.90805	177.32100	1527.31824	
307	3.060	101.00146	1391.83716	1383.47498				-33.31996	1615.43347	1473.90259				-39.74929	1494.40710	1588.23108	284.34329	1489.78894	1517.53589							-133.11063	1214.21411	1669.81360	419.74518	1187.91516	1600.80542	-241.75842	1269.57813	1557.94116	442.85019	1195.41235	1381.45813	73.58385	1086.06152	1468.27637	204.17416	1087.49097	1457.09546	157.80103	1004.13220	1720.25586	-7.26068	480.87610	1645.80713	344.74261	605.97009	1523.85400	7.61921	127.15765	1712.68518	394.73340	176.11301	1514.97339	
308	3.070	101.65091	1391.07068	1378.79236				-32.13691	1615.93567	1471.26331				-37.97422	1493.73975	1582.62158	285.68152	1488.24609	1513.00671										420.92526	1187.51514	1600.31519	-240.06517	1266.10144	1555.16040	444.92401	1191.76379	1380.12952	74.16491	1085.95471	1464.59070	204.51961	1086.77295	1452.63269	157.89154	1002.81842	1715.10974	-6.68848	480.99493	1643.22876	348.82156	604.96106	1522.02588	7.19206	127.62080	1711.48755	398.05627	175.22800	1504.08679	
309	3.080	102.91224	1390.62024	1373.25647				-30.93276	1616.19128	1469.22168				-36.93414	1493.46777	1579.39233	287.24380	1487.07886	1508.44580							-130.07735	1213.20972	1666.74976	422.89267	1187.34937	1598.80408	-237.76823	1263.00000	1550.82349	447.26324	1187.88538	1379.26794	74.49780	1085.45386	1460.56482	205.62956	1085.34290	1450.33386	158.48294	1002.60754	1711.92810	-6.24451	480.63367	1639.12720	351.78461	604.19543	1518.39307	7.51463	127.72525	1707.91479	401.89441	173.99295	1492.55823	
310	3.090							-29.63148	1616.70801	1466.99011				-35.56845	1492.77625	1575.80945	288.07761	1486.47192	1503.44312				160.63307	1483.44397	1639.37158				423.85736	1187.47339	1598.28320	-235.51593	1259.13342	1547.16028	448.72464	1183.15881	1377.47949	75.49276	1084.60107	1456.69788	205.81416	1085.38928	1444.32947	158.85739	1002.13904	1708.58044	-5.66960	480.05478	1635.75317	354.68860	603.33301	1513.94080	6.87062	127.51920	1705.91101	405.69547	173.03810	1481.53394	
311	3.100							-28.19070	1616.92078	1464.32007				-34.22449	1491.93054	1572.11475	289.65222	1485.39734	1498.71631				162.04282	1482.68311	1634.41931	-127.81841	1213.66223	1664.24463	425.34900	1187.29919	1596.54822	-233.11322	1256.03650	1543.16846	449.94763	1178.74268	1376.24072	77.02901	1084.20569	1451.98706	207.33987	1083.39001	1441.08777	159.81041	1000.53259	1703.49194	-5.20072	480.56534	1632.86060	356.54404	602.54327	1510.36670	6.81722	127.22432	1702.73474	409.24478	173.10378	1469.84143	
312	3.110							-26.37113	1617.01855	1461.40198				-32.59537	1491.49365	1567.63403	291.14368	1484.27197	1493.64624				163.55653	1482.38416	1630.75623	-126.76411	1213.68164	1663.29858	426.63617	1187.14478	1594.89368	-230.51230	1253.85291	1539.23779	452.19000	1174.77148	1375.58337	77.88428	1083.60669	1449.04224	207.84601	1082.98535	1436.44910	160.57092	999.99658	1699.27454	-5.26325	479.06570	1629.30640	358.51724	600.66217	1505.46326	6.61210	127.73173	1700.40686	412.52060	172.69472	1458.77893	
